<?xml version="1.0" encoding="UTF-8" standalone="no"?>
<svg xmlns="http://www.w3.org/2000/svg" xmlns:xlink="http://www.w3.org/1999/xlink" viewBox="50 50 500 1300">
<!--
RGB settings for SNFG
White  #fff
Blue  #0090bc
Green  #00a651
Yellow  #ffd400
Light blue  #8fcce9
Pink  #f69ea1
Purple  #a54399
Brown  #a17a4d
Orange  #f47920
Red  #ed1c24
-->
  <defs>
    <symbol id="hexnac_base" viewBox="0 0 100 100">
      <rect x="10" y="10" width="80" height="80" style="fill: var(--fill-color); stroke: var(--stroke-color); stroke-width: var(--stroke-width);" />
    </symbol>
    <symbol id="hex_base" viewBox="0 0 100 100">
      <circle cx="50" cy="50" r="40" style="fill: var(--fill-color); stroke: var(--stroke-color); stroke-width: var(--stroke-width);"/>
    </symbol>
    <symbol id="sia_base" viewBox="0 0 100 100">
      <rect x="17" y="17" transform="rotate(45,50,50)" width="66" height="66" style="fill: var(--fill-color); stroke: var(--stroke-color); stroke-width: var(--stroke-width);"/>
    </symbol>
    <symbol id="hexnac" viewBox="0 0 100 100">
      <rect x="10" y="10" width="80" height="80" fill="#fff" stroke-width="3" stroke="#000"/>
    </symbol>
    <symbol id="galnac" viewBox="0 0 100 100">
      <rect x="10" y="10" width="80" height="80" fill="#ffd400" stroke-width="1" stroke="#000"/>
    </symbol>
    <symbol id="glcnac" viewBox="0 0 100 100">
      <rect x="10" y="10" width="80" height="80" fill="#0090bc" stroke-width="1" stroke="#000"/>
    </symbol>
    <symbol id="man" viewBox="0 0 100 100">
      <circle cx="50" cy="50" fill="#00a651" r="40" stroke-width="1" stroke="#000"/>
    </symbol>
    <symbol id="man6p" viewBox="0 0 100 100">
      <circle cx="50" cy="75" fill="#00a651" r="20" stroke-width="1" stroke="#000"/>
      <text x="50" y="25" text-anchor="middle" stroke="#000" stroke-width="2" dy=".35em" dx="0.05em" font-size="25">P</text>
    </symbol>
    <symbol id="glc" viewBox="0 0 100 100">
      <circle cx="50" cy="50" fill="#0090bc" r="40" stroke-width="1" stroke="#000"/>
    </symbol>
    <symbol id="gal" viewBox="0 0 100 100">
      <circle cx="50" cy="50" fill="#ffd400" r="40" stroke-width="1" stroke="#000"/>
    </symbol>
    <symbol id="hex" viewBox="0 0 100 100">
      <circle cx="50" cy="50" fill="#fff" r="40" stroke-width="3" stroke="#000"/>
    </symbol>
    <symbol id="neu" viewBox="0 0 100 100">
      <rect x="17" y="17" transform="rotate(45,50,50)" fill="#ed1c24" stroke="#000" stroke-width="1" width="66" height="66"/>
    </symbol>
    <symbol id="neuac" viewBox="0 0 100 100">
      <rect x="17" y="17" transform="rotate(45,50,50)" fill="#a54399" stroke="#000" stroke-width="1" width="66" height="66"/>
    </symbol>
    <symbol id="neugc" viewBox="0 0 100 100">
      <rect x="17" y="17" transform="rotate(45,50,50)" fill="#8fcce9" stroke="#000" stroke-width="1" width="66" height="66"/>
    </symbol>
    <symbol id="fuc" viewBox="0 0 100 100">
      <path d="M50,15 90,90 10,90 z" fill="#ed1c24" stroke="#000" stroke-width="1"/>
    </symbol>
    <symbol id="fucnac" viewBox="0 0 100 100">
      <path d="M50,15 90,90 50,90 z" fill="#ed1c24" stroke="#000" stroke-width="1"/>
      <path d="M50,15 50,90 10,90 z" fill="#fff" stroke="#000" stroke-width="1"/>
    </symbol>
    <symbol id="rha" viewBox="0 0 100 100">
      <path d="M50,15 90,90 10,90 z" fill="#00a651" stroke="#000" stroke-width="1"/>
    </symbol>
    <symbol id="ara" viewBox="0 0 100 100">
<polyline fill="#00a651" stroke="#000" stroke-width="1" stroke-linecap="round" stroke-linejoin="round" stroke-miterlimit="10" points="
  67.802,60.462 78.803,94.32 50.001,69.823 21.196,94.322 32.199,60.462 3.386,39.531 38.999,39.534 50,5.678 61.002,39.536 96.615,39.539 67.804,60.462 "/>
    </symbol>
    <symbol id="araf" viewBox="0 0 100 100">
<polyline fill="#00a651" stroke="#000" stroke-width="1" stroke-linecap="round" stroke-linejoin="round" stroke-miterlimit="10" points="
  67.802,60.462 78.803,94.32 50.001,69.823 21.196,94.322 32.199,60.462 3.386,39.531 38.999,39.534 50,5.678 61.002,39.536 96.615,39.539 67.804,60.462 "/>
      <text x="50" y="50" text-anchor="middle" stroke="#fff" fill="#fff" stroke-width="0" dy=".4em" dx="-0.1em" font-size="50" font-family="sans-serif" font-style="italic">f</text>
    </symbol>
    <symbol id="xyl" viewBox="0 0 100 100">
<polyline fill="#f47920" stroke="#000" stroke-width="1" stroke-linecap="round" stroke-linejoin="round" stroke-miterlimit="10" points="
  67.802,60.462 78.803,94.32 50.001,69.823 21.196,94.322 32.199,60.462 3.386,39.531 38.999,39.534 50,5.678 61.002,39.536 96.615,39.539 67.804,60.462 "/>
    </symbol>
    <symbol id="rib" viewBox="0 0 100 100">
<polyline fill="#f69ea1" stroke="#000" stroke-width="1" stroke-linecap="round" stroke-linejoin="round" stroke-miterlimit="10" points="
  67.802,60.462 78.803,94.32 50.001,69.823 21.196,94.322 32.199,60.462 3.386,39.531 38.999,39.534 50,5.678 61.002,39.536 96.615,39.539 67.804,60.462 "/>
    </symbol>
    <symbol id="rbo" viewBox="0 0 100 100">
<polyline fill="#f69ea1" stroke="#000" stroke-width="1" stroke-linecap="round" stroke-linejoin="round" stroke-miterlimit="10" points="
  67.802,60.462 78.803,94.32 50.001,69.823 21.196,94.322 32.199,60.462 3.386,39.531 38.999,39.534 50,5.678 61.002,39.536 96.615,39.539 67.804,60.462 "/>
    <text x="50" y="50" text-anchor="middle" stroke="#fff" fill="#fff" stroke-width="0" dy=".4em" dx="-0.1em" font-size="25" font-family="sans-serif" font-style="italic">ol</text>
    </symbol>
    <symbol id="hexa" viewBox="0 0 100 100">
      <polyline fill="#fff" stroke="#000" stroke-width="1" points="50,5 95,50 5,50 50,5"/>
      <polyline fill="#fff" stroke="#000" stroke-width="1" points="50,95 95,50 5,50 50,95"/>
    </symbol>
    <symbol id="glca" viewBox="0 0 100 100">
      <polyline fill="#0090bc" stroke="#000" stroke-width="1" points="50,5 95,50 5,50 50,5"/>
      <polyline fill="#fff" stroke="#000" stroke-width="1" points="50,95 95,50 5,50 50,95"/>
    </symbol>
    <symbol id="glcn" viewBox="0 0 100 100">
      <polyline fill="#0090bc" stroke="#000" stroke-width="1" points="10,10 90,10 90,90 10,10"/>
      <polyline fill="#fff" stroke="#000" stroke-width="1" points="10,10 90,90 10,90 10,10"/>
    </symbol>
    <symbol id="idoa" viewBox="0 0 100 100">
      <polyline fill="#fff" stroke="#000" stroke-width="1" points="50,5 95,50 5,50 50,5"/>
      <polyline fill="#a17a4d" stroke="#000" stroke-width="1" points="50,95 95,50 5,50 50,95"/>
    </symbol>
    <symbol id="cer" viewBox="0 0 100 100">
      <path fill="#fff" stroke="#000" stroke-width="4" stroke-linecap="round" d="M35.8,15 64.2,15 75.5,27.2 64.2,38.3 75.5,50 64.2,61.1 75.5,72 64.2,83 75.5,94 L75.5,110 L35.8,110"/>
      <path fill="#fff" stroke="#999" stroke-width="4" stroke-linecap="round"  d="M35.8,15 24.5,27.2 35.8,38.3 24.5,50 35.8,61.1 24.5,72 35.8,83 24.5,94"/>
    </symbol>
    <!--
    <symbol id="man(a1-2)man" viewBox="0 0 100 100">
      <svg viewBox="0 0 100 100" x="0" y="0" width="100" height="50">
        <circle cx="50" cy="50" fill="#00a651" r="40" stroke-width="1" stroke="#000"/>
      </svg>
      <svg viewBox="0 0 100 100" x="0" y="50" width="100" height="50">
        <circle cx="50" cy="50" fill="#00a651" r="40" stroke-width="1" stroke="#000"/>
      </svg>
    </symbol>
    <symbol id="neuac(a2-3)gal(b1-3)galnac" viewBox="0 0 100 100">
      <svg viewBox="0 0 100 100" x="0" y="0" width="100" height="33">
        <rect x="17" y="17" transform="rotate(45,50,50)" fill="#a54399" stroke="#000" stroke-width="1" width="66" height="66"/>
      </svg>
      <svg viewBox="0 0 100 100" x="0" y="33" width="100" height="33">
        <circle cx="50" cy="50" fill="#ffd400" r="40" stroke-width="1" stroke="#000"/>
      </svg>
      <svg viewBox="0 0 100 100" x="0" y="66" width="100" height="33">
        <rect x="10" y="10" width="80" height="80" fill="#ffd400" stroke-width="1" stroke="#000"/>
      </svg>
    </symbol>
    <symbol id="gal(b1-3)galnac" viewBox="0 0 100 100">
      <svg viewBox="0 0 100 100" x="0" y="0" width="100" height="50">
        <circle cx="50" cy="50" fill="#ffd400" r="40" stroke-width="1" stroke="#000"/>
      </svg>
      <svg viewBox="0 0 100 100" x="0" y="50" width="100" height="50">
        <rect x="10" y="10" width="80" height="80" fill="#ffd400" stroke-width="1" stroke="#000"/>
      </svg>
    </symbol>
    <symbol id="glcnac(b1-4)glcnac" viewBox="0 0 100 100">
      <svg viewBox="0 0 100 100" x="0" y="0" width="100" height="50">
        <rect x="10" y="10" width="80" height="80" fill="#0090bc" stroke-width="1" stroke="#000"/>
      </svg>
      <svg viewBox="0 0 100 100" x="0" y="50" width="100" height="50">
        <rect x="10" y="10" width="80" height="80" fill="#0090bc" stroke-width="1" stroke="#000"/>
      </svg>
    </symbol>
    <symbol id="man(a1-3)[man(a1-6)]man(b1-4)glcnac(b1-4)glcnac" viewBox="0 0 100 100">
      <svg viewBox="0 0 100 100" x="50" y="0" width="25" height="25">
        <circle cx="50" cy="50" fill="#00a651" r="40" stroke-width="1" stroke="#000"/>
      </svg>
      <svg viewBox="0 0 100 100" x="25" y="0" width="25" height="25">
        <circle cx="50" cy="50" fill="#00a651" r="40" stroke-width="1" stroke="#000"/>
      </svg>
      <svg viewBox="0 0 100 100" x="37.5" y="25" width="25" height="25">
        <circle cx="50" cy="50" fill="#00a651" r="40" stroke-width="1" stroke="#000"/>
      </svg>
      <svg viewBox="0 0 100 100" x="37.5" y="50" width="25" height="25">
        <rect x="10" y="10" width="80" height="80" fill="#0090bc" stroke-width="1" stroke="#000"/>
      </svg>
      <svg viewBox="0 0 100 100" x="37.5" y="75" width="25" height="25">
        <rect x="10" y="10" width="80" height="80" fill="#0090bc" stroke-width="1" stroke="#000"/>
      </svg>
    </symbol>
    <symbol id="glcnac(b1-4)glcnac.potential" viewBox="0 0 100 100">
      <svg viewBox="0 0 100 100" x="0" y="0" width="100" height="50">
        <rect x="10" y="10" width="80" height="80" fill="#67a2fc" stroke-width="0" stroke="#000"/>
      </svg>
      <svg viewBox="0 0 100 100" x="0" y="50" width="100" height="50">
        <rect x="10" y="10" width="80" height="80" fill="#67a2fc" stroke-width="0" stroke="#000"/>
      </svg>
    </symbol>
    -->
    <symbol id="phospho" viewBox="0 0 100 100">
      <circle cx="50" cy="50" fill="#fff" r="48" stroke-width="3" stroke="#000"/>
      <text x="50" y="50" text-anchor="middle" stroke="#000" stroke-width="2" dy=".35em" dx="0.05em" font-size="50">P</text>
    </symbol>
    <symbol id="hso3" viewBox="0 0 100 100">
      <circle cx="50" cy="50" fill="#fdbbbb" r="35" stroke-width="4" stroke="#aa3030"/>
      <text x="50" y="50" text-anchor="middle" fill="#aa3030" stroke="none" stroke-width="2" dy=".35em" dx="0.05em" font-size="50">S</text>
    </symbol>
    <symbol id="hso3.2" viewBox="0 0 100 100">
      <circle cx="50" cy="50" fill="#fdbbbb" r="35" stroke-width="4" stroke="#aa3030"/>
      <text x="50" y="50" text-anchor="middle" fill="#aa3030" stroke="none" stroke-width="2" dy=".35em" dx="0.05em" font-size="30">2S</text>
    </symbol>
    <symbol id="hso3.3" viewBox="0 0 100 100">
      <circle cx="50" cy="50" fill="#fdbbbb" r="35" stroke-width="4" stroke="#aa3030"/>
      <text x="50" y="50" text-anchor="middle" fill="#aa3030" stroke="none" stroke-width="2" dy=".35em" dx="0.05em" font-size="30">3S</text>
    </symbol>
    <symbol id="hso3.4" viewBox="0 0 100 100">
      <circle cx="50" cy="50" fill="#fdbbbb" r="35" stroke-width="4" stroke="#aa3030"/>
      <text x="50" y="50" text-anchor="middle" fill="#aa3030" stroke="none" stroke-width="2" dy=".35em" dx="0.05em" font-size="30">4S</text>
    </symbol>
    <symbol id="hso3.6" viewBox="0 0 100 100">
      <circle cx="50" cy="50" fill="#fdbbbb" r="35" stroke-width="4" stroke="#aa3030"/>
      <text x="50" y="50" text-anchor="middle" fill="#aa3030" stroke="none" stroke-width="2" dy=".35em" dx="0.05em" font-size="30">6S</text>
    </symbol>
    <symbol id="hso3.N" viewBox="0 0 100 100">
      <circle cx="50" cy="50" fill="#fdbbbb" r="35" stroke-width="4" stroke="#aa3030"/>
      <text x="50" y="50" text-anchor="middle" fill="#aa3030" stroke="none" stroke-width="2" dy=".35em" dx="0.05em" font-size="30">NS</text>
    </symbol>
    <symbol id="p" viewBox="0 0 100 100">
      <circle cx="50" cy="50" fill="#bbe5fa" r="35" stroke-width="4" stroke="#2f5fac"/>
      <text x="50" y="50" text-anchor="middle" fill="#2f5fac" stroke="none" stroke-width="2" dy=".35em" dx="0.05em" font-size="50">P</text>
    </symbol>
    <symbol id="p" viewBox="0 0 100 100">
      <circle cx="50" cy="50" fill="#bbe5fa" r="35" stroke-width="4" stroke="#2f5fac"/>
      <text x="50" y="50" text-anchor="middle" fill="#2f5fac" stroke="none" stroke-width="2" dy=".35em" dx="0.05em" font-size="50">P</text>
    </symbol>
    <symbol id="ser" viewBox="0 0 100 100">
      <path d="M20,50 a1,1 0 0,0 30,0 a1,1 0 0,1 30,0" fill="none" stroke="#000" stroke-width="1"/>
      <text x="50" y="98" text-anchor="middle" fill="#000" stroke="#000" stroke-width="0" font-size="40">Ser</text>
    </symbol>
    <symbol id="thr" viewBox="0 0 100 100">
      <path d="M20,50 a1,1 0 0,0 30,0 a1,1 0 0,1 30,0" fill="none" stroke="#000" stroke-width="1"/>
      <text x="50" y="98" text-anchor="middle" fill="#000" stroke="#000" stroke-width="0" font-size="40">Thr</text>
    </symbol>
    <symbol id="asn" viewBox="0 0 100 100">
      <path d="M20,50 a1,1 0 0,0 30,0 a1,1 0 0,1 30,0" fill="none" stroke="#000" stroke-width="1"/>
      <text x="50" y="98" text-anchor="middle" fill="#000" stroke="#000" stroke-width="0" font-size="40">Asn</text>
    </symbol>
    <symbol id="hyl" viewBox="0 0 100 100">
      <path d="M20,50 a1,1 0 0,0 30,0 a1,1 0 0,1 30,0" fill="none" stroke="#000" stroke-width="1"/>
      <text x="50" y="98" text-anchor="middle" fill="#000" stroke="#000" stroke-width="0" font-size="40">Hyl</text>
    </symbol>
    <symbol id="etnp" viewBox="0 0 100 100">
      <path d="M72.109,55.693h12.039c2.38,0,4.302,0.674,5.765,2.023c1.464,1.35,2.196,3.245,2.196,5.687
        c0,2.101-0.653,3.929-1.959,5.486s-3.304,2.336-5.996,2.336h-8.401v11.373h-3.644V55.693z M86.245,59.392
        c-0.799-0.378-1.897-0.567-3.291-0.567h-7.201v9.323h7.201c1.625,0,2.943-0.348,3.955-1.044c1.012-0.696,1.519-1.923,1.519-3.681
        C88.427,61.444,77.7,50.101,76.245,49.392z"/>
       <path d="M10,10h4.052l12.663,20.516V10H30v25.392h-3.865L13.285,14.901v20.492H10V10z"/><!--"/>-->
      <polyline fill="none" stroke="#000000" stroke-width="2" stroke-miterlimit="10" points="38.202,22.696 57.491,41.848 52.509,46.866 47.527,51.884 63.907,68.148 "/>
    </symbol>

    <symbol id="pi" viewBox="0 0 100 100">
  <path d="M40.5,37.048h12.039c2.38,0,4.302,0.674,5.765,2.023c1.464,1.35,2.196,3.245,2.196,5.687c0,2.101-0.653,3.929-1.959,5.486
    c-1.306,1.557-3.304,2.336-5.996,2.336h-8.401v11.373H40.5V37.048z M54.636,40.747c-0.799-0.378-1.897-0.567-3.291-0.567h-7.201
    v9.323h7.201c1.625,0,2.943-0.348,3.955-1.044s1.519-1.923,1.519-3.681C56.819,42.799,56.091,41.456,54.636,40.747z"/>
<polyline fill="none" stroke="#000000" stroke-miterlimit="10" points="12.076,90.888 12.076,54.475 33.525,54.475 "/>
<line fill="none" stroke="#000000" stroke-miterlimit="10" x1="22.8" y1="80.746" x2="22.8" y2="54.475"/>
<polygon fill="#fff" stroke="#000000" stroke-miterlimit="10" points="50.482,3.475 38.46,10.415 38.46,24.297 50.482,31.237 
  62.503,24.297 62.503,10.415 "/>
<line fill="none" stroke="#000000" stroke-miterlimit="10" x1="50.482" y1="35.021" x2="50.482" y2="31.237"/>
    </symbol>

  </defs>
  <!--
  <g>
    <rect x="0" y="0" width="100" height="100" stroke-width="0.1" stroke="#000" fill="none"/>
    <text x="20" y="50" font-family="helvetica">100 x 100</text>
    <text x="0" y="15"  font-family="helvetica">0</text>
    <text x="70" y="100"  font-family="helvetica">100</text>
  </g>
  -->
  <use xlink:href="#galnac" x="100" y="100" width="100" height="100"/>
  <use xlink:href="#glcnac" x="200" y="100" width="100" height="100"/>
  <use xlink:href="#man" x="300" y="100" width="100" height="100"/>
  <use xlink:href="#glc" x="400" y="100" width="100" height="100"/>
  <text x="150" text-anchor="middle" y="210">GalNAc</text>
  <text x="250" text-anchor="middle" y="210">GlcNAc</text>
  <text x="350" text-anchor="middle" y="210">Mannose</text>
  <text x="450" text-anchor="middle" y="210">Glucose</text>
  <use xlink:href="#fuc" x="100" y="250" width="100" height="100"/>
  <use xlink:href="#neu" x="200" y="250" width="100" height="100"/>
  <use xlink:href="#neuac" x="300" y="250" width="100" height="100"/>
  <use xlink:href="#neugc" x="400" y="250" width="100" height="100"/>
  <text x="150" text-anchor="middle" y="370">Fucose</text>
  <text x="250" text-anchor="middle" y="370">Sialic acid</text>
  <text x="350" text-anchor="middle" y="370">NeuAc</text>
  <text x="450" text-anchor="middle" y="370">NeuGc</text>

  <use xlink:href="#ara" x="100" y="400" width="100" height="100"/>
  <use xlink:href="#xyl" x="200" y="400" width="100" height="100"/>
  <use xlink:href="#glca" x="300" y="400" width="100" height="100"/>
  <use xlink:href="#idoa" x="400" y="400" width="100" height="100"/>

  <text x="150" text-anchor="middle" y="510">Arabinose</text>
  <text x="250" text-anchor="middle" y="510">Xylose</text>
  <text x="350" text-anchor="middle" y="510">GlcA</text>
  <text x="450" text-anchor="middle" y="510">IdoA</text>

  <use xlink:href="#hexa" x="100" y="550" width="100" height="100"/>
  <use xlink:href="#hex" x="200" y="550" width="100" height="100"/>
  <use xlink:href="#hexnac" x="300" y="550" width="100" height="100"/>
  <use xlink:href="#p" x="400" y="550" width="100" height="100"/>

  <text x="150" text-anchor="middle" y="660">HexA</text>
  <text x="250" text-anchor="middle" y="660">Hexose</text>
  <text x="350" text-anchor="middle" y="660">HexNAc</text>
  <text x="450" text-anchor="middle" y="660">P</text>

  <use xlink:href="#ser" x="100" y="700" width="100" height="100"/>
  <use xlink:href="#thr" x="200" y="700" width="100" height="100"/>
  <use xlink:href="#asn" x="300" y="700" width="100" height="100"/>
  <use xlink:href="#hyl" x="400" y="700" width="100" height="100"/>

  <text x="150" text-anchor="middle" y="810">Ser</text>
  <text x="250" text-anchor="middle" y="810">Thr</text>
  <text x="350" text-anchor="middle" y="810">Asn</text>
  <text x="450" text-anchor="middle" y="810">HyL</text>

  <use xlink:href="#hso3" x="100" y="850" width="100" height="100"/>
  <use xlink:href="#cer" x="200" y="850" width="100" height="100"/>
  <use xlink:href="#hso3.2" x="300" y="850" width="100" height="100"/>
  <use xlink:href="#hso3.3" x="400" y="850" width="100" height="100"/>

  <text x="150" text-anchor="middle" y="960">HSO3</text>
  <text x="250" text-anchor="middle" y="960">Cer</text>
  <text x="350" text-anchor="middle" y="960">2S</text>
  <text x="450" text-anchor="middle" y="960">3S</text>


  <use xlink:href="#hso3.4" x="100" y="1000" width="100" height="100"/>
  <use xlink:href="#hso3.6" x="200" y="1000" width="100" height="100"/>
  <use xlink:href="#hso3.N" x="300" y="1000" width="100" height="100"/>
  <use xlink:href="#glcn" x="400" y="1000" width="100" height="100"/>

  <text x="150" text-anchor="middle" y="1110">4S</text>
  <text x="250" text-anchor="middle" y="1110">6S</text>
  <text x="350" text-anchor="middle" y="1110">NS</text>
  <text x="450" text-anchor="middle" y="1110">GlcN</text>


  <use xlink:href="#etnp" x="100" y="1150" width="100" height="100"/>
  <use xlink:href="#pi" x="200" y="1150" width="100" height="100"/>
  <use xlink:href="#etnp" x="300" y="1150" width="100" height="100"/>
  <use xlink:href="#etnp" x="400" y="1150" width="100" height="100"/>

  <text x="150" text-anchor="middle" y="1260">Etnp</text>
  <text x="250" text-anchor="middle" y="1260">PI</text>
  <text x="350" text-anchor="middle" y="1260">Etnp</text>
  <text x="450" text-anchor="middle" y="1260">Etnp</text>


</svg>
