<?xml version="1.0" encoding="UTF-8" standalone="no"?>
<svg xmlns="http://www.w3.org/2000/svg" xmlns:xlink="http://www.w3.org/1999/xlink" viewBox="50 50 500 1300">
<!--
RGB settings for SNFG
White  #fff
Blue  #0090bc
Green  #00a651
Yellow  #ffd400
Light blue  #8fcce9
Pink  #f69ea1
Purple  #a54399
Brown  #a17a4d
Orange  #f47920
Red  #ed1c24
-->
  <defs>
    <symbol id="hexnac_base" viewBox="0 0 100 100">
      <rect x="10" y="10" width="80" height="80" style="fill: var(--fill-color); stroke: var(--stroke-color); stroke-width: var(--stroke-width);" />
    </symbol>
    <symbol id="hex_base" viewBox="0 0 100 100">
      <circle cx="50" cy="50" r="40" style="fill: var(--fill-color); stroke: var(--stroke-color); stroke-width: var(--stroke-width);"/>
    </symbol>
    <symbol id="sia_base" viewBox="0 0 100 100">
      <path d="M50,5 95,50 50,95 5,50 z" style="fill: var(--fill-color); stroke: var(--stroke-color); stroke-width: var(--stroke-width);"/>
    </symbol>
    <symbol id="hexnac" viewBox="0 0 100 100">
      <rect x="10" y="10" width="80" height="80" fill="#fff" stroke-width="3" stroke="#000"/>
    </symbol>
    <symbol id="galnac" viewBox="0 0 100 100">
      <rect x="10" y="10" width="80" height="80" fill="#ffd400" stroke-width="1" stroke="#000"/>
    </symbol>
    <symbol id="glcnac" viewBox="0 0 100 100">
      <rect x="10" y="10" width="80" height="80" fill="#0090bc" stroke-width="1" stroke="#000"/>
    </symbol>
    <symbol id="man" viewBox="0 0 100 100">
      <circle cx="50" cy="50" fill="#00a651" r="40" stroke-width="1" stroke="#000"/>
    </symbol>
    <symbol id="man6p" viewBox="0 0 100 100">
      <circle cx="50" cy="75" fill="#00a651" r="20" stroke-width="1" stroke="#000"/>
      <text x="50" y="25" text-anchor="middle" stroke="#000" stroke-width="2" dy=".35em" dx="0.05em" font-size="25">P</text>
    </symbol>
    <symbol id="glc" viewBox="0 0 100 100">
      <circle cx="50" cy="50" fill="#0090bc" r="40" stroke-width="1" stroke="#000"/>
    </symbol>
    <symbol id="gal" viewBox="0 0 100 100">
      <circle cx="50" cy="50" fill="#ffd400" r="40" stroke-width="1" stroke="#000"/>
    </symbol>
    <symbol id="hex" viewBox="0 0 100 100">
      <circle cx="50" cy="50" fill="#fff" r="40" stroke-width="3" stroke="#000"/>
    </symbol>
    <symbol id="neu" viewBox="0 0 100 100">
      <path d="M50,5 95,50 50,95 5,50 z" fill="#ed1c24" stroke="#000" stroke-width="1"/>
    </symbol>
    <symbol id="neuac" viewBox="0 0 100 100">
      <path d="M50,5 95,50 50,95 5,50 z" fill="#a54399" stroke="#000" stroke-width="1"/>
    </symbol>
    <symbol id="neugc" viewBox="0 0 100 100">
      <path d="M50,5 95,50 50,95 5,50 z" fill="#8fcce9" stroke="#000" stroke-width="1"/>
    </symbol>
    <symbol id="fuc" viewBox="0 0 100 100">
      <path d="M50,15 90,90 10,90 z" fill="#ed1c24" stroke="#000" stroke-width="1"/>
    </symbol>
    <symbol id="fucnac" viewBox="0 0 100 100">
      <path d="M50,15 90,90 50,90 z" fill="#ed1c24" stroke="#000" stroke-width="1"/>
      <path d="M50,15 50,90 10,90 z" fill="#fff" stroke="#000" stroke-width="1"/>
    </symbol>
    <symbol id="rha" viewBox="0 0 100 100">
      <path d="M50,15 90,90 10,90 z" fill="#00a651" stroke="#000" stroke-width="1"/>
    </symbol>
    <symbol id="ara" viewBox="0 0 100 100">
<polyline fill="#00a651" stroke="#000" stroke-width="1" stroke-linecap="round" stroke-linejoin="round" stroke-miterlimit="10" points="
  67.802,60.462 78.803,94.32 50.001,69.823 21.196,94.322 32.199,60.462 3.386,39.531 38.999,39.534 50,5.678 61.002,39.536 96.615,39.539 67.804,60.462 "/>
    </symbol>
    <symbol id="araf" viewBox="0 0 100 100">
<polyline fill="#00a651" stroke="#000" stroke-width="1" stroke-linecap="round" stroke-linejoin="round" stroke-miterlimit="10" points="
  67.802,60.462 78.803,94.32 50.001,69.823 21.196,94.322 32.199,60.462 3.386,39.531 38.999,39.534 50,5.678 61.002,39.536 96.615,39.539 67.804,60.462 "/>
    <path stroke="#fff" fill="#fff" stroke-width="0" d="M51.2,39.9L50.3,44h-3.6L46,47.5h3.6L44.8,70h4.3l4.8-22.6h4.4l0.7-3.5h-4.3c0.6-2.8,1.1-4.6,1.5-5.3
      c0.4-0.7,1.3-1,2.6-1c0.2,0,0.4,0,0.6,0c0.2,0,0.5,0,1,0.1l0.9-4c-0.4,0-0.7-0.1-1-0.1c-0.3,0-0.6,0-0.9,0c-2.9,0-5.1,0.7-6.4,2.2
      C52.3,36.8,51.7,38.1,51.2,39.9z"/>
    </symbol>
    <symbol id="xyl" viewBox="0 0 100 100">
<polyline fill="#f47920" stroke="#000" stroke-width="1" stroke-linecap="round" stroke-linejoin="round" stroke-miterlimit="10" points="
  67.802,60.462 78.803,94.32 50.001,69.823 21.196,94.322 32.199,60.462 3.386,39.531 38.999,39.534 50,5.678 61.002,39.536 96.615,39.539 67.804,60.462 "/>
    </symbol>
    <symbol id="rib" viewBox="0 0 100 100">
<polyline fill="#f69ea1" stroke="#000" stroke-width="1" stroke-linecap="round" stroke-linejoin="round" stroke-miterlimit="10" points="
  67.802,60.462 78.803,94.32 50.001,69.823 21.196,94.322 32.199,60.462 3.386,39.531 38.999,39.534 50,5.678 61.002,39.536 96.615,39.539 67.804,60.462 "/>
    </symbol>
    <symbol id="rbo" viewBox="0 0 100 100">
<polyline fill="#f69ea1" stroke="#000" stroke-width="1" stroke-linecap="round" stroke-linejoin="round" stroke-miterlimit="10" points="
  67.802,60.462 78.803,94.32 50.001,69.823 21.196,94.322 32.199,60.462 3.386,39.531 38.999,39.534 50,5.678 61.002,39.536 96.615,39.539 67.804,60.462 "/>
    <path stroke="#fff" fill="#fff" d="M52.7,48.3c-0.9-1.1-2.2-1.7-3.9-1.7c-1.9,0-3.5,0.7-4.9,2c-1.4,1.3-2.3,3.1-2.8,5.2
      c-0.4,2.1-0.2,3.7,0.5,4.9c0.8,1.2,2.1,1.8,3.9,1.8c2.2,0,3.9-0.7,5.2-2.1c1.3-1.4,2.2-3.1,2.6-5.2C53.8,51.1,53.6,49.4,52.7,48.3
      z M49.4,57c-0.8,1.1-1.9,1.7-3.4,1.7c-1.3,0-2.2-0.5-2.6-1.4c-0.4-0.9-0.5-2.1-0.2-3.5c0.3-1.4,0.9-2.7,1.7-3.7
      c0.8-1,1.9-1.5,3.3-1.5c1.5,0,2.5,0.6,2.8,1.8c0.2,0.8,0.2,1.8,0,3C50.7,54.7,50.2,55.9,49.4,57z"/>
    <path stroke="#fff" fill="#fff" d="M54.6,60.1h2.2l3.8-17.9h-2.2L54.6,60.1z"/>
    </symbol>
    <symbol id="hexa" viewBox="0 0 100 100">
      <polyline fill="#fff" stroke="#000" stroke-width="1" points="50,5 95,50 5,50 50,5"/>
      <polyline fill="#fff" stroke="#000" stroke-width="1" points="50,95 95,50 5,50 50,95"/>
    </symbol>
    <symbol id="glca" viewBox="0 0 100 100">
      <polyline fill="#0090bc" stroke="#000" stroke-width="1" points="50,5 95,50 5,50 50,5"/>
      <polyline fill="#fff" stroke="#000" stroke-width="1" points="50,95 95,50 5,50 50,95"/>
    </symbol>
    <symbol id="glcn" viewBox="0 0 100 100">
      <polyline fill="#0090bc" stroke="#000" stroke-width="1" points="10,10 90,10 90,90 10,10"/>
      <polyline fill="#fff" stroke="#000" stroke-width="1" points="10,10 90,90 10,90 10,10"/>
    </symbol>
    <symbol id="idoa" viewBox="0 0 100 100">
      <polyline fill="#fff" stroke="#000" stroke-width="1" points="50,5 95,50 5,50 50,5"/>
      <polyline fill="#a17a4d" stroke="#000" stroke-width="1" points="50,95 95,50 5,50 50,95"/>
    </symbol>
    <symbol id="cer" viewBox="0 0 100 100">
      <path fill="#fff" stroke="#000" stroke-width="4" stroke-linecap="round" d="M35.8,15 64.2,15 75.5,27.2 64.2,38.3 75.5,50 64.2,61.1 75.5,72 64.2,83 75.5,94 L75.5,110 L35.8,110"/>
      <path fill="#fff" stroke="#999" stroke-width="4" stroke-linecap="round"  d="M35.8,15 24.5,27.2 35.8,38.3 24.5,50 35.8,61.1 24.5,72 35.8,83 24.5,94"/>
    </symbol>
    <!--
    <symbol id="man(a1-2)man" viewBox="0 0 100 100">
      <svg viewBox="0 0 100 100" x="0" y="0" width="100" height="50">
        <circle cx="50" cy="50" fill="#00a651" r="40" stroke-width="1" stroke="#000"/>
      </svg>
      <svg viewBox="0 0 100 100" x="0" y="50" width="100" height="50">
        <circle cx="50" cy="50" fill="#00a651" r="40" stroke-width="1" stroke="#000"/>
      </svg>
    </symbol>
    <symbol id="neuac(a2-3)gal(b1-3)galnac" viewBox="0 0 100 100">
      <svg viewBox="0 0 100 100" x="0" y="0" width="100" height="33">
        <rect x="17" y="17" transform="rotate(45,50,50)" fill="#a54399" stroke="#000" stroke-width="1" width="66" height="66"/>
      </svg>
      <svg viewBox="0 0 100 100" x="0" y="33" width="100" height="33">
        <circle cx="50" cy="50" fill="#ffd400" r="40" stroke-width="1" stroke="#000"/>
      </svg>
      <svg viewBox="0 0 100 100" x="0" y="66" width="100" height="33">
        <rect x="10" y="10" width="80" height="80" fill="#ffd400" stroke-width="1" stroke="#000"/>
      </svg>
    </symbol>
    <symbol id="gal(b1-3)galnac" viewBox="0 0 100 100">
      <svg viewBox="0 0 100 100" x="0" y="0" width="100" height="50">
        <circle cx="50" cy="50" fill="#ffd400" r="40" stroke-width="1" stroke="#000"/>
      </svg>
      <svg viewBox="0 0 100 100" x="0" y="50" width="100" height="50">
        <rect x="10" y="10" width="80" height="80" fill="#ffd400" stroke-width="1" stroke="#000"/>
      </svg>
    </symbol>
    <symbol id="glcnac(b1-4)glcnac" viewBox="0 0 100 100">
      <svg viewBox="0 0 100 100" x="0" y="0" width="100" height="50">
        <rect x="10" y="10" width="80" height="80" fill="#0090bc" stroke-width="1" stroke="#000"/>
      </svg>
      <svg viewBox="0 0 100 100" x="0" y="50" width="100" height="50">
        <rect x="10" y="10" width="80" height="80" fill="#0090bc" stroke-width="1" stroke="#000"/>
      </svg>
    </symbol>
    <symbol id="man(a1-3)[man(a1-6)]man(b1-4)glcnac(b1-4)glcnac" viewBox="0 0 100 100">
      <svg viewBox="0 0 100 100" x="50" y="0" width="25" height="25">
        <circle cx="50" cy="50" fill="#00a651" r="40" stroke-width="1" stroke="#000"/>
      </svg>
      <svg viewBox="0 0 100 100" x="25" y="0" width="25" height="25">
        <circle cx="50" cy="50" fill="#00a651" r="40" stroke-width="1" stroke="#000"/>
      </svg>
      <svg viewBox="0 0 100 100" x="37.5" y="25" width="25" height="25">
        <circle cx="50" cy="50" fill="#00a651" r="40" stroke-width="1" stroke="#000"/>
      </svg>
      <svg viewBox="0 0 100 100" x="37.5" y="50" width="25" height="25">
        <rect x="10" y="10" width="80" height="80" fill="#0090bc" stroke-width="1" stroke="#000"/>
      </svg>
      <svg viewBox="0 0 100 100" x="37.5" y="75" width="25" height="25">
        <rect x="10" y="10" width="80" height="80" fill="#0090bc" stroke-width="1" stroke="#000"/>
      </svg>
    </symbol>
    <symbol id="glcnac(b1-4)glcnac.potential" viewBox="0 0 100 100">
      <svg viewBox="0 0 100 100" x="0" y="0" width="100" height="50">
        <rect x="10" y="10" width="80" height="80" fill="#67a2fc" stroke-width="0" stroke="#000"/>
      </svg>
      <svg viewBox="0 0 100 100" x="0" y="50" width="100" height="50">
        <rect x="10" y="10" width="80" height="80" fill="#67a2fc" stroke-width="0" stroke="#000"/>
      </svg>
    </symbol>
    -->
    <symbol id="phospho" viewBox="0 0 100 100">
      <circle cx="50" cy="50" fill="#fff" r="48" stroke-width="3" stroke="#000"/>
      <text x="50" y="50" text-anchor="middle" stroke="#000" stroke-width="2" dy=".35em" dx="0.05em" font-size="50">P</text>
    </symbol>
    <symbol id="hso3" viewBox="0 0 100 100">
      <circle cx="50" cy="50" fill="#fdbbbb" r="35" stroke-width="4" stroke="#aa3030"/>
      <path fill="#aa3030" stroke="none" stroke-width="2" d="M38.8,62.4c1.2,1.9,3,3.3,5.2,4.3c2.2,0.9,4.9,1.4,8.1,1.4c2.6,0,4.9-0.5,6.9-1.4c2-0.9,3.6-2.2,4.7-3.9
        c1.1-1.7,1.6-3.5,1.6-5.4c0-1.9-0.5-3.6-1.5-5.1c-1-1.5-2.5-2.7-4.6-3.6c-1.4-0.7-4.1-1.4-7.9-2.3c-3.8-0.9-6.2-1.7-7.1-2.6
        c-0.9-0.8-1.4-1.9-1.4-3.2c0-1.5,0.7-2.7,2-3.8c1.3-1,3.4-1.6,6.3-1.6c2.8,0,4.8,0.6,6.2,1.7c1.4,1.2,2.2,2.9,2.5,5.1l4.5-0.3
        c-0.1-2.1-0.7-4-1.8-5.6c-1.1-1.7-2.6-2.9-4.7-3.8s-4.4-1.3-7-1.3c-2.4,0-4.6,0.4-6.6,1.2c-2,0.8-3.5,2-4.5,3.6
        c-1,1.6-1.5,3.3-1.5,5.1c0,1.6,0.4,3.1,1.3,4.5c0.8,1.3,2.1,2.4,3.8,3.3c1.3,0.7,3.6,1.4,6.9,2.2c3.3,0.8,5.4,1.4,6.4,1.7
        c1.5,0.6,2.6,1.3,3.2,2.1c0.7,0.8,1,1.8,1,2.9c0,1.1-0.3,2.1-1,3.1c-0.7,0.9-1.7,1.7-3.1,2.2c-1.4,0.5-3,0.8-4.8,0.8
        c-2,0-3.9-0.4-5.5-1.1c-1.6-0.7-2.8-1.6-3.6-2.8c-0.8-1.1-1.3-2.6-1.5-4.4L36.8,56C36.9,58.4,37.5,60.5,38.8,62.4z"/>
    </symbol>
    <symbol id="hso3.2" viewBox="0 0 100 100">
      <circle cx="50" cy="50" fill="#fdbbbb" r="35" stroke-width="4" stroke="#aa3030"/>
      <path fill="#aa3030" stroke="none" stroke-width="2" d="M36.9,58.1c0.3-0.5,0.7-1,1.1-1.4s1.5-1.4,3-2.7c1.9-1.6,3.2-2.9,4.1-3.8s1.4-1.8,1.8-2.6s0.5-1.7,0.5-2.5
        c0-1.7-0.6-3.1-1.8-4.2S42.8,39,40.7,39c-2,0-3.7,0.5-4.9,1.6s-1.9,2.6-2.1,4.6l2.7,0.3c0-1.3,0.4-2.4,1.2-3.2s1.8-1.1,3-1.1
        c1.2,0,2.2,0.4,2.9,1.1s1.1,1.6,1.1,2.6c0,1-0.4,2.1-1.2,3.2s-2.4,2.6-4.7,4.5c-1.5,1.2-2.7,2.3-3.5,3.3s-1.4,1.9-1.7,2.9
        c-0.2,0.6-0.3,1.2-0.3,1.8h14.2v-2.5H36.9z"/>
      <path fill="#aa3030" stroke="none" stroke-width="2" d="M51.5,57.6c0.7,1.1,1.8,2,3.1,2.6s2.9,0.8,4.9,0.8c1.5,0,2.9-0.3,4.1-0.8s2.2-1.3,2.8-2.4s1-2.1,1-3.2
        c0-1.2-0.3-2.2-0.9-3.1s-1.5-1.6-2.8-2.2c-0.9-0.4-2.4-0.8-4.8-1.4s-3.7-1-4.3-1.5c-0.6-0.5-0.8-1.1-0.8-1.9
        c0-0.9,0.4-1.6,1.2-2.3s2-0.9,3.8-0.9c1.7,0,2.9,0.3,3.7,1s1.3,1.7,1.5,3.1l2.7-0.2c0-1.3-0.4-2.4-1.1-3.4S64.2,40,63,39.5
        s-2.6-0.8-4.2-0.8c-1.4,0-2.8,0.2-3.9,0.7s-2.1,1.2-2.7,2.1s-0.9,2-0.9,3c0,1,0.3,1.9,0.8,2.7s1.3,1.5,2.3,2
        c0.8,0.4,2.2,0.9,4.1,1.3s3.2,0.8,3.8,1c0.9,0.3,1.5,0.8,1.9,1.3s0.6,1.1,0.6,1.8c0,0.7-0.2,1.3-0.6,1.8s-1,1-1.9,1.3
        s-1.8,0.5-2.9,0.5c-1.2,0-2.3-0.2-3.3-0.6s-1.7-1-2.2-1.7s-0.8-1.6-0.9-2.6l-2.7,0.2C50.4,55.1,50.8,56.4,51.5,57.6z"/>
    </symbol>
    <symbol id="hso3.3" viewBox="0 0 100 100">
      <circle cx="50" cy="50" fill="#fdbbbb" r="35" stroke-width="4" stroke="#aa3030"/>
      <path fill="#aa3030" stroke="none" stroke-width="2" d="M35.7,59.3c1.2,1.1,2.8,1.7,4.7,1.7c2.1,0,3.8-0.7,5.2-2s2.1-2.9,2.1-4.8c0-1.4-0.4-2.5-1.1-3.5
        s-1.7-1.5-3-1.8c1-0.4,1.7-1.1,2.2-1.8s0.7-1.6,0.7-2.5c0-1-0.3-1.9-0.8-2.8s-1.3-1.6-2.3-2.1S41.5,39,40.3,39
        c-1.7,0-3.1,0.5-4.3,1.5s-1.9,2.3-2.2,4.1l2.6,0.5c0.2-1.3,0.6-2.3,1.3-2.9s1.5-1,2.6-1c1,0,1.9,0.3,2.5,1s1,1.4,1,2.4
        c0,1.2-0.4,2.1-1.3,2.7s-1.9,0.9-3,0.9c-0.1,0-0.2,0-0.4,0l-0.3,2.3c0.7-0.2,1.4-0.3,1.9-0.3c1.2,0,2.2,0.4,3,1.2s1.2,1.8,1.2,3
        c0,1.3-0.4,2.3-1.3,3.2s-1.9,1.3-3.1,1.3c-1,0-1.9-0.3-2.7-1s-1.2-1.7-1.5-3.2l-2.6,0.4C33.8,56.7,34.5,58.2,35.7,59.3z"/>
      <path fill="#aa3030" stroke="none" stroke-width="2" d="M51.5,57.6c0.7,1.1,1.8,2,3.1,2.6s2.9,0.8,4.9,0.8c1.5,0,2.9-0.3,4.1-0.8s2.2-1.3,2.8-2.4s1-2.1,1-3.2
        c0-1.2-0.3-2.2-0.9-3.1s-1.5-1.6-2.8-2.2c-0.9-0.4-2.4-0.8-4.8-1.4s-3.7-1-4.3-1.5c-0.6-0.5-0.8-1.1-0.8-1.9
        c0-0.9,0.4-1.6,1.2-2.3s2-0.9,3.8-0.9c1.7,0,2.9,0.3,3.7,1s1.3,1.7,1.5,3.1l2.7-0.2c0-1.3-0.4-2.4-1.1-3.4S64.2,40,63,39.5
        s-2.6-0.8-4.2-0.8c-1.4,0-2.8,0.2-3.9,0.7s-2.1,1.2-2.7,2.1s-0.9,2-0.9,3c0,1,0.3,1.9,0.8,2.7s1.3,1.5,2.3,2
        c0.8,0.4,2.2,0.9,4.1,1.3s3.2,0.8,3.8,1c0.9,0.3,1.5,0.8,1.9,1.3s0.6,1.1,0.6,1.8c0,0.7-0.2,1.3-0.6,1.8s-1,1-1.9,1.3
        s-1.8,0.5-2.9,0.5c-1.2,0-2.3-0.2-3.3-0.6s-1.7-1-2.2-1.7s-0.8-1.6-0.9-2.6l-2.7,0.2C50.4,55.1,50.8,56.4,51.5,57.6z"/>
    </symbol>
    <symbol id="hso3.4" viewBox="0 0 100 100">
      <circle cx="50" cy="50" fill="#fdbbbb" r="35" stroke-width="4" stroke="#aa3030"/>
      <path fill="#aa3030" stroke="none" stroke-width="2" d="M44.6,60.6v-5.1h2.9V53h-2.9V39.1h-2.2L32.7,53v2.4H42v5.1H44.6z M35.3,53l6.7-9.7V53H35.3z"/>
      <path fill="#aa3030" stroke="none" stroke-width="2" d="M51.5,57.5c0.7,1.1,1.8,2,3.1,2.6s2.9,0.8,4.9,0.8c1.5,0,2.9-0.3,4.1-0.8c1.2-0.6,2.2-1.3,2.8-2.4
        s1-2.1,1-3.2c0-1.2-0.3-2.2-0.9-3.1s-1.5-1.6-2.8-2.2c-0.9-0.4-2.4-0.8-4.8-1.4c-2.3-0.5-3.7-1-4.3-1.5c-0.6-0.5-0.8-1.1-0.8-1.9
        c0-0.9,0.4-1.6,1.2-2.3s2-0.9,3.8-0.9c1.7,0,2.9,0.3,3.7,1s1.3,1.7,1.5,3.1l2.7-0.2c0-1.3-0.4-2.4-1.1-3.4s-1.6-1.8-2.8-2.3
        s-2.6-0.8-4.2-0.8c-1.4,0-2.8,0.2-3.9,0.7s-2.1,1.2-2.7,2.1s-0.9,2-0.9,3c0,1,0.3,1.9,0.8,2.7s1.3,1.5,2.3,2
        c0.8,0.4,2.2,0.9,4.1,1.3s3.2,0.8,3.8,1c0.9,0.3,1.5,0.8,1.9,1.3s0.6,1.1,0.6,1.8c0,0.7-0.2,1.3-0.6,1.8s-1,1-1.9,1.3
        s-1.8,0.5-2.9,0.5c-1.2,0-2.3-0.2-3.3-0.6s-1.7-1-2.2-1.7s-0.8-1.6-0.9-2.6l-2.7,0.2C50.4,55.1,50.8,56.4,51.5,57.5z"/>
    </symbol>
    <symbol id="hso3.6" viewBox="0 0 100 100">
      <circle cx="50" cy="50" fill="#fdbbbb" r="35" stroke-width="4" stroke="#aa3030"/>
      <path fill="#aa3030" stroke="none" stroke-width="2" d="M45.4,40.4c-1.1-0.9-2.5-1.4-4.2-1.4c-2.3,0-4.1,0.8-5.4,2.5c-1.5,1.9-2.3,4.9-2.3,9.1c0,3.7,0.7,6.4,2.1,8
        s3.2,2.4,5.4,2.4c1.3,0,2.4-0.3,3.5-0.9s1.8-1.5,2.4-2.7s0.9-2.4,0.9-3.8c0-2.1-0.6-3.7-1.9-5s-2.7-1.9-4.5-1.9
        c-1,0-2,0.2-2.9,0.7s-1.7,1.2-2.3,2.2c0-2.1,0.3-3.8,0.7-5s1.1-2,2-2.7c0.6-0.5,1.4-0.7,2.2-0.7c1,0,1.9,0.4,2.6,1.1
        c0.4,0.5,0.8,1.2,1,2.3l2.6-0.2C47.1,42.7,46.5,41.4,45.4,40.4z M37.8,50.2c0.8-0.9,1.8-1.3,3-1.3c1.2,0,2.2,0.4,3,1.3
        s1.2,2,1.2,3.5c0,1.5-0.4,2.8-1.2,3.7s-1.8,1.3-2.9,1.3c-0.8,0-1.5-0.2-2.2-0.7s-1.2-1.1-1.6-1.9s-0.6-1.7-0.6-2.6
        C36.5,52.2,37,51.1,37.8,50.2z"/>
      <path fill="#aa3030" stroke="none" stroke-width="2" d="M51.6,57.5c0.7,1.1,1.8,2,3.1,2.6s2.9,0.8,4.9,0.8c1.5,0,2.9-0.3,4.1-0.8c1.2-0.6,2.2-1.3,2.8-2.4
        s1-2.1,1-3.2c0-1.2-0.3-2.2-0.9-3.1s-1.5-1.6-2.8-2.2c-0.9-0.4-2.4-0.8-4.8-1.4s-3.7-1-4.3-1.5c-0.6-0.5-0.8-1.1-0.8-1.9
        c0-0.9,0.4-1.6,1.2-2.3s2-0.9,3.8-0.9c1.7,0,2.9,0.3,3.7,1s1.3,1.7,1.5,3.1l2.7-0.2c0-1.3-0.4-2.4-1.1-3.4S64.2,40,63,39.5
        c-1.2-0.5-2.6-0.8-4.2-0.8c-1.4,0-2.8,0.2-3.9,0.7s-2.1,1.2-2.7,2.1s-0.9,2-0.9,3c0,1,0.3,1.9,0.8,2.7s1.3,1.5,2.3,2
        c0.8,0.4,2.2,0.9,4.1,1.3s3.2,0.8,3.8,1c0.9,0.3,1.5,0.8,1.9,1.3c0.4,0.5,0.6,1.1,0.6,1.8c0,0.7-0.2,1.3-0.6,1.8
        c-0.4,0.6-1,1-1.9,1.3s-1.8,0.5-2.9,0.5c-1.2,0-2.3-0.2-3.3-0.6s-1.7-1-2.2-1.7s-0.8-1.6-0.9-2.6l-2.7,0.2
        C50.5,55.1,50.9,56.4,51.6,57.5z"/>
    </symbol>
    <symbol id="hso3.N" viewBox="0 0 100 100">
      <circle cx="50" cy="50" fill="#fdbbbb" r="35" stroke-width="4" stroke="#aa3030"/>
      <path fill="#aa3030" stroke="none" stroke-width="2" d="M34.9,60.6V43.7l11.3,16.9H49V39.1h-2.7v16.9L35,39.1h-2.9v21.5H34.9z"/>
      <path fill="#aa3030" stroke="none" stroke-width="2" d="M54,57.5c0.7,1.1,1.8,2,3.1,2.6s2.9,0.8,4.9,0.8c1.5,0,2.9-0.3,4.1-0.8s2.2-1.3,2.8-2.4s1-2.1,1-3.2
        c0-1.2-0.3-2.2-0.9-3.1s-1.5-1.6-2.8-2.2c-0.9-0.4-2.4-0.8-4.8-1.4s-3.7-1-4.3-1.5c-0.6-0.5-0.8-1.1-0.8-1.9
        c0-0.9,0.4-1.6,1.2-2.3s2-0.9,3.8-0.9c1.7,0,2.9,0.3,3.7,1s1.3,1.7,1.5,3.1l2.7-0.2c0-1.3-0.4-2.4-1.1-3.4s-1.6-1.8-2.8-2.3
        s-2.6-0.8-4.2-0.8c-1.4,0-2.8,0.2-3.9,0.7s-2.1,1.2-2.7,2.1s-0.9,2-0.9,3c0,1,0.3,1.9,0.8,2.7s1.3,1.5,2.3,2
        c0.8,0.4,2.2,0.9,4.1,1.3s3.2,0.8,3.8,1c0.9,0.3,1.5,0.8,1.9,1.3s0.6,1.1,0.6,1.8c0,0.7-0.2,1.3-0.6,1.8s-1,1-1.9,1.3
        c-0.8,0.3-1.8,0.5-2.9,0.5c-1.2,0-2.3-0.2-3.3-0.6s-1.7-1-2.2-1.7s-0.8-1.6-0.9-2.6l-2.7,0.2C52.9,55.1,53.3,56.4,54,57.5z"/>
    </symbol>
    <symbol id="p" viewBox="0 0 100 100">
      <circle cx="50" cy="50" fill="#bbe5fa" r="35" stroke-width="4" stroke="#2f5fac"/>
      <path fill="#2f5fac" stroke="none" stroke-width="2" d="M43.1,67.5V53h9.2c5.1,0,8.6-1.1,10.5-3.2c1.9-2.1,2.9-4.7,2.9-7.7c0-1.8-0.4-3.4-1.1-4.9
        c-0.7-1.5-1.7-2.6-2.9-3.5c-1.2-0.8-2.7-1.4-4.4-1.7c-1.3-0.2-3.1-0.3-5.4-0.3H38.4v35.8H43.1z M43.1,36h9.2
        c2.1,0,3.6,0.1,4.4,0.3c1.2,0.3,2.2,1,3,2.1c0.8,1.1,1.1,2.3,1.1,3.8c0,2.1-0.6,3.7-1.9,4.8c-1.3,1.1-3.5,1.7-6.5,1.7h-9.3V36z"/>
    </symbol>
    <symbol id="ser" viewBox="0 0 100 100">
      <path d="M20,50 a1,1 0 0,0 30,0 a1,1 0 0,1 30,0" fill="none" stroke="#000" stroke-width="1"/>
      <path d="M22.2,88.5c1,1.5,2.4,2.7,4.1,3.4c1.8,0.8,3.9,1.1,6.5,1.1c2,0,3.9-0.4,5.5-1.1c1.6-0.7,2.9-1.8,3.8-3.1
        c0.9-1.3,1.3-2.8,1.3-4.3c0-1.5-0.4-2.9-1.2-4.1c-0.8-1.2-2-2.2-3.7-2.9c-1.1-0.5-3.3-1.1-6.3-1.8c-3.1-0.7-5-1.4-5.7-2
        c-0.7-0.7-1.1-1.5-1.1-2.5c0-1.2,0.5-2.2,1.6-3c1-0.8,2.7-1.3,5-1.3c2.2,0,3.9,0.5,5,1.4c1.1,0.9,1.8,2.3,2,4.1l3.6-0.3
        c-0.1-1.7-0.5-3.2-1.4-4.5c-0.9-1.3-2.1-2.3-3.7-3s-3.5-1-5.6-1c-1.9,0-3.7,0.3-5.3,1C25,65.1,23.8,66,23,67.3s-1.2,2.6-1.2,4.1
        c0,1.3,0.3,2.5,1,3.6c0.7,1.1,1.7,2,3.1,2.7c1.1,0.6,2.9,1.2,5.5,1.8c2.6,0.6,4.3,1.1,5.1,1.4c1.2,0.5,2.1,1,2.6,1.7
        c0.5,0.7,0.8,1.5,0.8,2.4c0,0.9-0.3,1.7-0.8,2.5c-0.5,0.7-1.4,1.3-2.5,1.8c-1.1,0.4-2.4,0.6-3.8,0.6c-1.6,0-3.1-0.3-4.4-0.8
        c-1.3-0.6-2.3-1.3-2.9-2.2c-0.6-0.9-1-2.1-1.2-3.5l-3.6,0.3C20.7,85.3,21.2,87,22.2,88.5z"/>
      <path d="M60.2,89.1c-0.9,0.7-2,1-3.3,1c-1.7,0-3.2-0.6-4.3-1.8c-1.2-1.2-1.8-3-1.9-5.2h15.5c0-0.4,0-0.7,0-0.9
        c0-3.4-0.9-6.1-2.6-8s-4-2.8-6.8-2.8c-2.9,0-5.2,1-7,2.9S47,78.9,47,82.4c0,3.4,0.9,6,2.7,7.9s4.2,2.8,7.2,2.8
        c2.4,0,4.4-0.6,5.9-1.8c1.5-1.2,2.6-2.8,3.2-4.9l-3.6-0.4C61.8,87.4,61.1,88.5,60.2,89.1z M52.6,75.9c1.1-1.1,2.5-1.6,4.1-1.6
        c1.8,0,3.2,0.7,4.4,2c0.7,0.9,1.2,2.2,1.3,3.9H50.8C50.9,78.4,51.5,77,52.6,75.9z"/>
      <path d="M73.9,92.6V81.7c0-1.5,0.2-2.9,0.6-4.1c0.3-0.8,0.7-1.5,1.3-1.9c0.6-0.5,1.3-0.7,2.1-0.7c0.9,0,1.7,0.3,2.6,0.8l1.2-3.3
        c-1.2-0.8-2.4-1.1-3.6-1.1c-0.8,0-1.6,0.2-2.3,0.7s-1.4,1.4-2.2,2.9v-3.1h-3.2v20.7H73.9z"/>

    </symbol>
    <symbol id="thr" viewBox="0 0 100 100">
      <path d="M20,50 a1,1 0 0,0 30,0 a1,1 0 0,1 30,0" fill="none" stroke="#000" stroke-width="1"/>
      <path d="M34.1,92.6V67.3h9.5V64H20.9v3.4h9.4v25.3H34.1z"/>
      <path d="M50.6,92.6V81.2c0-1.6,0.2-2.9,0.6-3.8s1-1.7,2-2.2s1.9-0.8,2.9-0.8c1.4,0,2.5,0.4,3.2,1.2s1.1,2.1,1.1,3.8v13.1h3.5V79.4
        c0-2-0.2-3.6-0.7-4.6s-1.3-1.9-2.4-2.5s-2.5-0.9-4-0.9c-2.5,0-4.6,1-6.2,2.9V64H47v28.6H50.6z"/>
      <path d="M72.8,92.6V81.7c0-1.5,0.2-2.9,0.6-4.1c0.3-0.8,0.7-1.5,1.3-1.9c0.6-0.5,1.3-0.7,2.1-0.7c0.9,0,1.7,0.3,2.6,0.8l1.2-3.3
        c-1.2-0.8-2.4-1.1-3.6-1.1c-0.8,0-1.6,0.2-2.3,0.7s-1.4,1.4-2.2,2.9v-3.1h-3.2v20.7H72.8z"/>
    </symbol>
    <symbol id="asn" viewBox="0 0 100 100">
      <path d="M20,50 a1,1 0 0,0 30,0 a1,1 0 0,1 30,0" fill="none" stroke="#000" stroke-width="1"/>
      <path d="M19.4,92.6l3.1-8.7h12l3.3,8.7h4.3L30.5,64h-4.1l-11,28.6H19.4z M26.8,72.4c0.7-1.8,1.2-3.6,1.5-5.5
        c0.4,1.5,1.1,3.5,2,5.9l3,7.9h-9.7L26.8,72.4z"/>
      <path d="M46.1,91.4c1.4,1.1,3.5,1.7,6.2,1.7c1.6,0,3.1-0.3,4.4-0.8s2.3-1.4,3-2.4s1-2.1,1-3.3c0-1.2-0.3-2.2-0.8-3
        c-0.6-0.8-1.3-1.4-2.3-1.8c-1-0.4-2.7-1-5.2-1.6c-1.7-0.5-2.8-0.8-3.1-0.9c-0.6-0.2-1.1-0.6-1.3-0.9c-0.3-0.4-0.4-0.8-0.4-1.2
        c0-0.7,0.3-1.3,1-1.9c0.7-0.5,1.8-0.8,3.5-0.8c1.4,0,2.4,0.3,3.2,0.9c0.7,0.6,1.2,1.4,1.4,2.5l3.4-0.5c-0.2-1.3-0.6-2.4-1.2-3.2
        s-1.5-1.4-2.7-1.9s-2.7-0.7-4.3-0.7c-1.1,0-2.1,0.1-3,0.4c-0.9,0.3-1.7,0.6-2.2,1c-0.7,0.5-1.3,1.2-1.7,2
        c-0.4,0.8-0.6,1.6-0.6,2.6c0,1,0.3,1.9,0.8,2.8c0.5,0.8,1.3,1.5,2.3,2s2.8,1,5.4,1.7c1.9,0.5,3.1,0.9,3.6,1.2c0.7,0.5,1,1.1,1,1.9
        c0,0.9-0.4,1.7-1.2,2.3s-2,1-3.6,1c-1.6,0-2.8-0.4-3.7-1.1c-0.9-0.7-1.4-1.8-1.6-3.2l-3.5,0.5C43.8,88.6,44.7,90.3,46.1,91.4z"/>
      <path d="M68.3,92.6V81.3c0-2.7,0.5-4.5,1.6-5.4c1.1-1,2.4-1.4,3.9-1.4c0.9,0,1.8,0.2,2.5,0.6c0.7,0.4,1.2,1,1.5,1.7
        s0.4,1.8,0.4,3.2v12.6h3.5V79.8c0-1.6-0.1-2.8-0.2-3.4c-0.2-1-0.6-1.9-1.1-2.6c-0.5-0.7-1.3-1.3-2.4-1.8c-1-0.4-2.2-0.7-3.4-0.7
        c-2.9,0-5.1,1.1-6.6,3.4v-2.9h-3.2v20.7H68.3z"/>
    </symbol>
    <symbol id="hyl" viewBox="0 0 100 100">
      <path d="M20,50 a1,1 0 0,0 30,0 a1,1 0 0,1 30,0" fill="none" stroke="#000" stroke-width="1"/>
      <path d="M28.1,92.6V79.1H43v13.5h3.8V64H43v11.8H28.1V64h-3.8v28.6H28.1z"/>
      <path d="M54.7,101c1.1,0,2.1-0.3,2.9-0.8c0.8-0.5,1.5-1.4,2.1-2.5c0.5-0.9,1.1-2.4,2-4.7l7.9-21.1h-3.5l-4.4,12.1
        c-0.6,1.5-1,3.1-1.4,4.7c-0.4-1.7-0.9-3.3-1.5-4.8l-4.3-12h-3.8l7.9,20.8c-0.1,0.4-0.2,0.7-0.3,0.9c-0.5,1.4-0.9,2.3-1.1,2.6
        c-0.3,0.5-0.7,0.8-1.2,1.1s-1.1,0.4-1.9,0.4c-0.6,0-1.2-0.1-2-0.3l0.4,3.3C53.3,100.9,54.1,101,54.7,101z"/>
      <path d="M76.1,92.6V64h-3.5v28.6H76.1z"/>
    </symbol>
    <symbol id="etnp" viewBox="0 0 100 100">
      <path d="M50,15.1 L66.2,26.9 L60,45.9 L40,45.9 L33.8,26.9" fill="#000"/>
      <circle cx="50" cy="70" fill="#bbe5fa" r="15" stroke-width="2" stroke="#2f5fac"/>
      <path fill="#2f5fac" stroke="none" stroke-width="2" d="M47,70.5v0h4.5c2.5,0,4.3-0.55,5.25-1.6c0.95-1.05,1.45-2.35,1.45-3.85c0-0.9-0.2-1.7-0.55-2.45c-0.35-0.75-0.85-1.3-1.45-1.75c-0.6-0.4-1.35-0.7-2.2-0.85c-0.65-0.1-1.55-0.15-2.7-0.15h-8v17.9h3.6z m-0.5,-8.5h4.6
c1.05,0,1.8,0.05,2.2,0.15
c0.6,0.15,1.1,0.5,1.5,1.05c0.4,0.55,0.55,1.15,0.55,1.9c0,1.05-0.3,1.85-0.95,2.4c-0.65,0.55-1.75,0.85-3.25,0.85h-4.65v-7z"/>
    </symbol>
    <symbol id="dol-pp" viewBox="0 0 100 100">
      <circle cx="50" cy="20" fill="#bbe5fa" r="7.5" stroke-width="2" stroke="#2f5fac"/>
      <circle cx="50" cy="40" fill="#bbe5fa" r="7.5" stroke-width="2" stroke="#2f5fac"/>
      <path fill="none" stroke="#999" stroke-width="4" stroke-linecap="round"  d="M50,50 55.8,61.1 44.5,72 55.8,83 44.5,94"/>
    </symbol>
    <symbol id="dol-p" viewBox="0 0 100 100">
      <circle cx="50" cy="20" fill="#bbe5fa" r="7.5" stroke-width="2" stroke="#2f5fac"/>
      <path fill="none" stroke="#999" stroke-width="4" stroke-linecap="round"  d="M50,27.5 55.8,38.9 44.5,50 55.8,61.1 44.5,72 55.8,83 44.5,94"/>
    </symbol>

    <symbol id="pi" viewBox="0 0 100 100">
  <path d="M40.5,37.048h12.039c2.38,0,4.302,0.674,5.765,2.023c1.464,1.35,2.196,3.245,2.196,5.687c0,2.101-0.653,3.929-1.959,5.486
    c-1.306,1.557-3.304,2.336-5.996,2.336h-8.401v11.373H40.5V37.048z M54.636,40.747c-0.799-0.378-1.897-0.567-3.291-0.567h-7.201
    v9.323h7.201c1.625,0,2.943-0.348,3.955-1.044s1.519-1.923,1.519-3.681C56.819,42.799,56.091,41.456,54.636,40.747z"/>
<polyline fill="none" stroke="#000000" stroke-miterlimit="10" points="12.076,90.888 12.076,54.475 33.525,54.475 "/>
<line fill="none" stroke="#000000" stroke-miterlimit="10" x1="22.8" y1="80.746" x2="22.8" y2="54.475"/>
<polygon fill="#fff" stroke="#000000" stroke-miterlimit="10" points="50.482,3.475 38.46,10.415 38.46,24.297 50.482,31.237 
  62.503,24.297 62.503,10.415 "/>
<line fill="none" stroke="#000000" stroke-miterlimit="10" x1="50.482" y1="35.021" x2="50.482" y2="31.237"/>
    </symbol>

  </defs>
  <!--
  <g>
    <rect x="0" y="0" width="100" height="100" stroke-width="0.1" stroke="#000" fill="none"/>
    <text x="20" y="50" font-family="helvetica">100 x 100</text>
    <text x="0" y="15"  font-family="helvetica">0</text>
    <text x="70" y="100"  font-family="helvetica">100</text>
  </g>
  -->
  <use xlink:href="#galnac" x="100" y="100" width="100" height="100"/>
  <use xlink:href="#glcnac" x="200" y="100" width="100" height="100"/>
  <use xlink:href="#man" x="300" y="100" width="100" height="100"/>
  <use xlink:href="#glc" x="400" y="100" width="100" height="100"/>
  <text x="150" text-anchor="middle" y="210">GalNAc</text>
  <text x="250" text-anchor="middle" y="210">GlcNAc</text>
  <text x="350" text-anchor="middle" y="210">Mannose</text>
  <text x="450" text-anchor="middle" y="210">Glucose</text>
  <use xlink:href="#fuc" x="100" y="250" width="100" height="100"/>
  <use xlink:href="#neu" x="200" y="250" width="100" height="100"/>
  <use xlink:href="#neuac" x="300" y="250" width="100" height="100"/>
  <use xlink:href="#neugc" x="400" y="250" width="100" height="100"/>
  <text x="150" text-anchor="middle" y="370">Fucose</text>
  <text x="250" text-anchor="middle" y="370">Sialic acid</text>
  <text x="350" text-anchor="middle" y="370">NeuAc</text>
  <text x="450" text-anchor="middle" y="370">NeuGc</text>

  <use xlink:href="#ara" x="100" y="400" width="100" height="100"/>
  <use xlink:href="#xyl" x="200" y="400" width="100" height="100"/>
  <use xlink:href="#glca" x="300" y="400" width="100" height="100"/>
  <use xlink:href="#idoa" x="400" y="400" width="100" height="100"/>

  <text x="150" text-anchor="middle" y="510">Arabinose</text>
  <text x="250" text-anchor="middle" y="510">Xylose</text>
  <text x="350" text-anchor="middle" y="510">GlcA</text>
  <text x="450" text-anchor="middle" y="510">IdoA</text>

  <use xlink:href="#hexa" x="100" y="550" width="100" height="100"/>
  <use xlink:href="#hex" x="200" y="550" width="100" height="100"/>
  <use xlink:href="#hexnac" x="300" y="550" width="100" height="100"/>
  <use xlink:href="#p" x="400" y="550" width="100" height="100"/>

  <text x="150" text-anchor="middle" y="660">HexA</text>
  <text x="250" text-anchor="middle" y="660">Hexose</text>
  <text x="350" text-anchor="middle" y="660">HexNAc</text>
  <text x="450" text-anchor="middle" y="660">P</text>

  <use xlink:href="#ser" x="100" y="700" width="100" height="100"/>
  <use xlink:href="#thr" x="200" y="700" width="100" height="100"/>
  <use xlink:href="#asn" x="300" y="700" width="100" height="100"/>
  <use xlink:href="#hyl" x="400" y="700" width="100" height="100"/>

  <text x="150" text-anchor="middle" y="810">Ser</text>
  <text x="250" text-anchor="middle" y="810">Thr</text>
  <text x="350" text-anchor="middle" y="810">Asn</text>
  <text x="450" text-anchor="middle" y="810">HyL</text>

  <use xlink:href="#hso3" x="100" y="850" width="100" height="100"/>
  <use xlink:href="#cer" x="200" y="850" width="100" height="100"/>
  <use xlink:href="#hso3.2" x="300" y="850" width="100" height="100"/>
  <use xlink:href="#hso3.3" x="400" y="850" width="100" height="100"/>

  <text x="150" text-anchor="middle" y="960">HSO3</text>
  <text x="250" text-anchor="middle" y="960">Cer</text>
  <text x="350" text-anchor="middle" y="960">2S</text>
  <text x="450" text-anchor="middle" y="960">3S</text>


  <use xlink:href="#hso3.4" x="100" y="1000" width="100" height="100"/>
  <use xlink:href="#hso3.6" x="200" y="1000" width="100" height="100"/>
  <use xlink:href="#hso3.N" x="300" y="1000" width="100" height="100"/>
  <use xlink:href="#glcn" x="400" y="1000" width="100" height="100"/>

  <text x="150" text-anchor="middle" y="1110">4S</text>
  <text x="250" text-anchor="middle" y="1110">6S</text>
  <text x="350" text-anchor="middle" y="1110">NS</text>
  <text x="450" text-anchor="middle" y="1110">GlcN</text>


  <use xlink:href="#etnp" x="100" y="1150" width="100" height="100"/>
  <use xlink:href="#pi" x="200" y="1150" width="100" height="100"/>
  <use xlink:href="#dol-pp" x="300" y="1150" width="100" height="100"/>
  <use xlink:href="#dol-p" x="400" y="1150" width="100" height="100"/>

  <text x="150" text-anchor="middle" y="1260">Etnp</text>
  <text x="250" text-anchor="middle" y="1260">PI</text>
  <text x="350" text-anchor="middle" y="1260">Dol-PP</text>
  <text x="450" text-anchor="middle" y="1260">Dol-P</text>


</svg>
